<svg width="48" height="48" viewBox="0 0 48 48" fill="none" xmlns="http://www.w3.org/2000/svg">
<g id="ic_kosdaq">
<path id="Vector" d="M16.9967 24.02C16.9967 24.5838 17.0031 25.1484 16.9951 25.7123C16.9838 26.5004 16.4824 26.9877 15.6672 26.9939C14.5574 27.0016 13.4476 27.0024 12.3378 26.9939C11.5186 26.9877 11.01 26.4981 11.0051 25.7162C10.9979 24.5753 10.9987 23.4345 11.0051 22.2936C11.01 21.4776 11.5049 21.0066 12.3547 21.0035C13.4645 20.9996 14.5743 20.9981 15.6841 21.0035C16.4865 21.0074 16.9798 21.4776 16.9943 22.2511C17.0055 22.8405 16.9967 23.4306 16.9967 24.02ZM15.4008 22.1134C14.4979 22.1134 13.6593 22.1072 12.8215 22.1242C12.7475 22.1258 12.6155 22.282 12.6147 22.3671C12.6002 23.4422 12.6066 24.5181 12.6034 25.5932C12.6034 25.7819 12.6702 25.8716 12.8835 25.8693C13.6311 25.8623 14.3796 25.8747 15.1264 25.8562C15.2197 25.8538 15.3888 25.7107 15.3896 25.6303C15.4065 24.4802 15.4016 23.3293 15.4016 22.1126L15.4008 22.1134Z" fill="white"/>
<path id="Vector_2" d="M25 26.9925V21.0588C25.0562 21.0371 25.0936 21.01 25.131 21.0092C26.6854 21.0053 28.2397 20.9906 29.7932 21.0092C30.4525 21.0169 30.9706 21.5174 30.9826 22.1527C31.0055 23.3846 31.0064 24.6179 30.9817 25.8498C30.9689 26.4634 30.4823 26.9654 29.8196 26.9801C28.2269 27.0166 26.6335 26.9918 25 26.9918V26.9925ZM26.6658 22.1117C26.6658 23.3334 26.6598 24.4886 26.6786 25.6429C26.6794 25.7204 26.8606 25.8583 26.9619 25.8614C27.6399 25.8808 28.3197 25.8816 28.9977 25.8614C29.0981 25.8583 29.2776 25.7158 29.2793 25.6352C29.298 24.5428 29.2972 23.4504 29.2819 22.3588C29.281 22.2759 29.1347 22.1248 29.053 22.1225C28.2788 22.1047 27.5029 22.1117 26.6649 22.1117H26.6658Z" fill="white"/>
<path id="Vector_3" d="M43.5547 25.8692H45V26.9765C44.8927 26.9835 44.7791 26.9982 44.6663 26.9982C43.2367 26.9998 41.8072 27.0013 40.3777 26.9982C39.4791 26.9959 39.0034 26.5223 39.0018 25.6331C38.9994 24.5296 38.9994 23.4253 39.0018 22.3218C39.0041 21.4714 39.4736 21.0063 40.3327 21.0032C41.3031 20.9993 42.2735 20.9986 43.2446 21.0032C44.0509 21.0078 44.5266 21.4845 44.5337 22.2862C44.5408 23.0818 44.5314 23.8781 44.5511 24.6728C44.5582 24.9452 44.4856 25.127 44.2355 25.2694C43.9815 25.4141 43.7559 25.6061 43.5176 25.7771C43.5302 25.8073 43.5428 25.8382 43.5555 25.8684L43.5547 25.8692ZM40.5717 25.8676C41.3457 25.8676 42.0628 25.8769 42.7784 25.8529C42.8502 25.8506 42.9709 25.6417 42.9725 25.5279C42.9874 24.5033 42.9725 23.4787 42.9867 22.4542C42.9906 22.1764 42.8817 22.1013 42.6182 22.1075C42.0557 22.1206 41.4924 22.1222 40.9299 22.1075C40.6593 22.0997 40.5623 22.188 40.567 22.4573C40.5804 23.2768 40.5717 24.097 40.5717 24.9166C40.5717 25.2199 40.5717 25.524 40.5717 25.8684V25.8676Z" fill="white"/>
<path id="Vector_4" d="M37.9992 26.987C37.4387 26.987 36.9401 26.9985 36.4431 26.9769C36.3496 26.9731 36.2151 26.8512 36.1817 26.7587C36.0756 26.4686 35.9946 26.1694 35.9303 25.8693C35.8861 25.6626 35.7716 25.5986 35.5561 25.6055C35.2229 25.6163 34.888 25.587 34.5572 25.614C34.2373 25.6402 34.0352 25.5377 33.8798 25.2854C33.7604 25.0918 33.5975 24.9206 33.3937 24.6638C33.2025 25.3649 33.0179 25.9765 32.8742 26.5959C32.8041 26.899 32.6738 27.024 32.3205 26.9962C31.8995 26.9623 31.4719 26.9885 31 26.9885C31.3266 25.7783 31.6373 24.6283 31.948 23.4782C32.0791 22.9946 32.2036 22.5094 32.3439 22.0281C32.5326 21.3779 32.9452 21.0486 33.6777 21.0177C34.2724 20.9923 34.8729 20.9923 35.4668 21.0308C36.0255 21.0678 36.4423 21.3447 36.5876 21.8631C37.0604 23.5438 37.5164 25.2291 38 26.9877L37.9992 26.987ZM35.5503 24.4848C35.3432 23.7212 35.1494 22.9938 34.9414 22.2696C34.923 22.2071 34.8145 22.1392 34.7359 22.123C34.2373 22.0204 34.0778 22.1184 33.955 22.5765C33.9149 22.7254 33.8682 22.8727 33.8289 23.0216C33.7028 23.4991 33.5783 23.9773 33.4455 24.4848H35.5495H35.5503Z" fill="white"/>
<path id="Vector_5" d="M6.88334 23.8047C7.92587 24.8726 8.92782 25.8988 10 26.9968C9.32501 26.9968 8.75927 27.0084 8.1943 26.9875C8.07569 26.9829 7.94069 26.8765 7.84783 26.7832C7.17597 26.107 6.5119 25.4247 5.85096 24.7384C5.77214 24.6567 5.73 24.541 5.6707 24.4408C5.62466 24.4678 5.57784 24.4948 5.5318 24.5218V26.9683H4V21.0051H5.49746V23.221C5.67694 23.0799 5.78385 23.0051 5.87983 22.918C6.5119 22.349 7.13461 21.7692 7.7776 21.2133C7.9087 21.0999 8.11393 21.0228 8.2895 21.0143C8.81623 20.9889 9.3453 21.0051 9.97503 21.0051C8.90753 21.972 7.91182 22.8733 6.88334 23.8047Z" fill="white"/>
<path id="Vector_6" d="M24 21.0054C23.6893 21.3774 23.4455 21.6978 23.1694 21.9858C23.0772 22.0818 22.9049 22.1373 22.7672 22.1405C22.052 22.1555 21.3368 22.1405 20.6216 22.15C20.2825 22.1539 19.8126 22.0588 19.6396 22.2436C19.4619 22.4332 19.5658 22.9099 19.5604 23.2613C19.5535 23.8078 19.5588 24.3543 19.5588 25C19.019 24.5669 18.5491 24.1941 18.0861 23.8126C18.0354 23.7705 17.9992 23.6753 18 23.6055C18.0046 23.0542 17.9854 22.4998 18.0408 21.9533C18.0915 21.4527 18.5153 21.0212 18.9898 21.0141C20.6332 20.9895 22.2766 21.0046 24 21.0046V21.0054Z" fill="white"/>
<path id="Vector_7" d="M17.0008 26.9982C17.301 26.6395 17.5569 26.3074 17.8439 26.0067C17.9269 25.9197 18.0968 25.8907 18.2271 25.8899C19.168 25.8802 20.1097 25.8697 21.0506 25.8923C21.3997 25.9003 21.4951 25.7705 21.4865 25.428C21.4679 24.6541 21.4803 23.8803 21.4803 23C22.0039 23.4288 22.4639 23.8021 22.9185 24.1825C22.9619 24.2188 22.9945 24.2986 22.9937 24.3575C22.9906 24.9177 23.0255 25.4844 22.958 26.0374C22.8843 26.6419 22.4251 26.991 21.8038 26.995C20.527 27.0039 19.2503 26.9982 17.9743 26.9982C17.6702 26.9982 17.3661 26.9982 17 26.9982H17.0008Z" fill="white"/>
</g>
</svg>
