<svg width="72" height="72" viewBox="0 0 72 72" fill="none" xmlns="http://www.w3.org/2000/svg">
<g clip-path="url(#clip0_93_1012)">
<g filter="url(#filter0_bd_93_1012)">
<path d="M51 34.6806C51 46 38.6351 49.2 36 52C33.1622 49.2 21 46 21 34.6806C21 26.5727 27.7157 20 36 20C44.2843 20 51 26.5727 51 34.6806Z" fill="#971B2F"/>
<path d="M50.75 34.6806C50.75 40.2307 47.7256 43.7951 44.3382 46.3351C42.6621 47.5919 40.9046 48.592 39.3852 49.4567L39.3318 49.4871C38.5683 49.9216 37.8632 50.3238 37.2664 50.7056C36.7651 51.0262 36.3292 51.3392 35.9944 51.6531C35.6404 51.3398 35.1887 51.0264 34.6732 50.7042C34.0872 50.338 33.4057 49.9526 32.6721 49.5377L32.5821 49.4868C31.0419 48.6156 29.2692 47.6068 27.5865 46.3356C24.2256 43.7966 21.25 40.2323 21.25 34.6806C21.25 26.7159 27.8487 20.25 36 20.25C44.1513 20.25 50.75 26.7159 50.75 34.6806Z" stroke="url(#paint0_linear_93_1012)" stroke-width="0.5"/>
</g>
</g>
<defs>
<filter id="filter0_bd_93_1012" x="-19" y="-20" width="110" height="112" filterUnits="userSpaceOnUse" color-interpolation-filters="sRGB">
<feFlood flood-opacity="0" result="BackgroundImageFix"/>
<feGaussianBlur in="BackgroundImageFix" stdDeviation="20"/>
<feComposite in2="SourceAlpha" operator="in" result="effect1_backgroundBlur_93_1012"/>
<feColorMatrix in="SourceAlpha" type="matrix" values="0 0 0 0 0 0 0 0 0 0 0 0 0 0 0 0 0 0 127 0" result="hardAlpha"/>
<feOffset dy="4"/>
<feGaussianBlur stdDeviation="15"/>
<feComposite in2="hardAlpha" operator="out"/>
<feColorMatrix type="matrix" values="0 0 0 0 0.293889 0 0 0 0 0.426267 0 0 0 0 0.766667 0 0 0 0.3 0"/>
<feBlend mode="normal" in2="effect1_backgroundBlur_93_1012" result="effect2_dropShadow_93_1012"/>
<feBlend mode="normal" in="SourceGraphic" in2="effect2_dropShadow_93_1012" result="shape"/>
</filter>
<linearGradient id="paint0_linear_93_1012" x1="23.1875" y1="22.1479" x2="52.0606" y2="59.1762" gradientUnits="userSpaceOnUse">
<stop stop-color="white"/>
<stop offset="1" stop-color="#D1D1D1" stop-opacity="0"/>
</linearGradient>
<clipPath id="clip0_93_1012">
<rect width="72" height="72" fill="white"/>
</clipPath>
</defs>
</svg>
